<svg xmlns="http://www.w3.org/2000/svg" xmlns:xlink="http://www.w3.org/1999/xlink" xmlns:serif="http://www.serif.com/" viewBox="0 0 48 60" version="1.1" xml:space="preserve" style="" x="0px" y="0px" fill-rule="evenodd" clip-rule="evenodd" stroke-linejoin="round" stroke-miterlimit="2"><g transform="matrix(1,0,0,1,-336,-48)"><g transform="matrix(1.04545,0,0,1.04545,-16.3636,-1.27273)"><g><path d="M358.462,51.989C358.718,51.364 359.325,50.957 360,50.957C360.675,50.957 361.282,51.364 361.538,51.989C361.538,51.989 365.999,62.887 365.999,62.887C366.136,63.222 366.452,63.451 366.813,63.478L378.557,64.354C379.23,64.404 379.805,64.856 380.014,65.497C380.222,66.139 380.022,66.843 379.507,67.279C379.507,67.279 370.521,74.889 370.521,74.889C370.244,75.124 370.124,75.494 370.21,75.846L373.006,87.286C373.167,87.941 372.915,88.628 372.369,89.025C371.823,89.421 371.092,89.448 370.518,89.093C370.518,89.093 360.503,82.899 360.503,82.899C360.195,82.708 359.805,82.708 359.497,82.899L349.482,89.093C348.908,89.448 348.177,89.421 347.631,89.025C347.085,88.628 346.833,87.941 346.994,87.286C346.994,87.286 349.79,75.846 349.79,75.846C349.876,75.494 349.756,75.124 349.479,74.889L340.493,67.279C339.978,66.843 339.778,66.139 339.986,65.497C340.195,64.856 340.77,64.404 341.443,64.354C341.443,64.354 353.187,63.478 353.187,63.478C353.548,63.451 353.864,63.222 354.001,62.887C354.001,62.887 358.462,51.989 358.462,51.989Z"/></g></g></g></svg>